<mxfile host="app.diagrams.net" modified="2021-07-21T04:38:25.996Z" agent="5.0 (Windows NT 10.0; Win64; x64) AppleWebKit/537.36 (KHTML, like Gecko) Chrome/91.0.4472.164 Safari/537.36" etag="HD-LZ67KFCbBTm6ElgWJ" version="14.9.0" type="github">
  <diagram id="r31NpO8StPggfQZ5wYu1" name="Page-1">
    <mxGraphModel dx="868" dy="450" grid="1" gridSize="10" guides="1" tooltips="1" connect="1" arrows="1" fold="1" page="1" pageScale="1" pageWidth="850" pageHeight="1100" math="0" shadow="0">
      <root>
        <mxCell id="0" />
        <mxCell id="1" parent="0" />
        <object label="Paciente" id="rq2JJRKLw_9G8wA5gH8K-1">
          <mxCell style="shape=umlActor;verticalLabelPosition=bottom;verticalAlign=top;html=1;outlineConnect=0;shadow=0;" vertex="1" parent="1">
            <mxGeometry x="100" y="160" width="30" height="60" as="geometry" />
          </mxCell>
        </object>
        <mxCell id="rq2JJRKLw_9G8wA5gH8K-2" value="Recepcionista" style="shape=umlActor;verticalLabelPosition=bottom;verticalAlign=top;html=1;outlineConnect=0;" vertex="1" parent="1">
          <mxGeometry x="510" y="110" width="30" height="60" as="geometry" />
        </mxCell>
        <mxCell id="rq2JJRKLw_9G8wA5gH8K-3" value="Médico" style="shape=umlActor;verticalLabelPosition=bottom;verticalAlign=top;html=1;outlineConnect=0;" vertex="1" parent="1">
          <mxGeometry x="510" y="310" width="30" height="60" as="geometry" />
        </mxCell>
        <mxCell id="rq2JJRKLw_9G8wA5gH8K-9" value="Solicita consulta" style="ellipse;whiteSpace=wrap;html=1;" vertex="1" parent="1">
          <mxGeometry x="250" y="20" width="140" height="40" as="geometry" />
        </mxCell>
        <mxCell id="rq2JJRKLw_9G8wA5gH8K-11" value="" style="endArrow=none;html=1;entryX=0;entryY=0.5;entryDx=0;entryDy=0;" edge="1" parent="1" source="rq2JJRKLw_9G8wA5gH8K-1" target="rq2JJRKLw_9G8wA5gH8K-9">
          <mxGeometry width="50" height="50" relative="1" as="geometry">
            <mxPoint x="190" y="140" as="sourcePoint" />
            <mxPoint x="240" y="90" as="targetPoint" />
          </mxGeometry>
        </mxCell>
        <mxCell id="rq2JJRKLw_9G8wA5gH8K-13" value="Consulta agenda" style="ellipse;whiteSpace=wrap;html=1;" vertex="1" parent="1">
          <mxGeometry x="250" y="80" width="140" height="40" as="geometry" />
        </mxCell>
        <mxCell id="rq2JJRKLw_9G8wA5gH8K-14" value="" style="endArrow=none;html=1;entryX=0.5;entryY=0.5;entryDx=0;entryDy=0;entryPerimeter=0;" edge="1" parent="1" source="rq2JJRKLw_9G8wA5gH8K-13" target="rq2JJRKLw_9G8wA5gH8K-2">
          <mxGeometry width="50" height="50" relative="1" as="geometry">
            <mxPoint x="410" y="160" as="sourcePoint" />
            <mxPoint x="460" y="110" as="targetPoint" />
          </mxGeometry>
        </mxCell>
        <mxCell id="rq2JJRKLw_9G8wA5gH8K-15" value="Marca consulta" style="ellipse;whiteSpace=wrap;html=1;" vertex="1" parent="1">
          <mxGeometry x="250" y="140" width="140" height="40" as="geometry" />
        </mxCell>
        <mxCell id="rq2JJRKLw_9G8wA5gH8K-16" value="" style="endArrow=none;html=1;entryX=0.5;entryY=0.5;entryDx=0;entryDy=0;entryPerimeter=0;exitX=1;exitY=0.5;exitDx=0;exitDy=0;" edge="1" parent="1" source="rq2JJRKLw_9G8wA5gH8K-15" target="rq2JJRKLw_9G8wA5gH8K-2">
          <mxGeometry width="50" height="50" relative="1" as="geometry">
            <mxPoint x="420" y="230" as="sourcePoint" />
            <mxPoint x="470" y="180" as="targetPoint" />
          </mxGeometry>
        </mxCell>
        <mxCell id="rq2JJRKLw_9G8wA5gH8K-17" value="Realiza consulta" style="ellipse;whiteSpace=wrap;html=1;" vertex="1" parent="1">
          <mxGeometry x="250" y="200" width="140" height="40" as="geometry" />
        </mxCell>
        <mxCell id="rq2JJRKLw_9G8wA5gH8K-18" value="" style="endArrow=none;html=1;entryX=0.5;entryY=0.5;entryDx=0;entryDy=0;entryPerimeter=0;exitX=1;exitY=0.5;exitDx=0;exitDy=0;" edge="1" parent="1" source="rq2JJRKLw_9G8wA5gH8K-17" target="rq2JJRKLw_9G8wA5gH8K-3">
          <mxGeometry width="50" height="50" relative="1" as="geometry">
            <mxPoint x="400" y="210" as="sourcePoint" />
            <mxPoint x="450" y="160" as="targetPoint" />
          </mxGeometry>
        </mxCell>
        <mxCell id="rq2JJRKLw_9G8wA5gH8K-19" value="Prescreve medicação" style="ellipse;whiteSpace=wrap;html=1;" vertex="1" parent="1">
          <mxGeometry x="250" y="260" width="140" height="40" as="geometry" />
        </mxCell>
        <mxCell id="rq2JJRKLw_9G8wA5gH8K-20" value="Solicita realização de exames" style="ellipse;whiteSpace=wrap;html=1;" vertex="1" parent="1">
          <mxGeometry x="250" y="320" width="140" height="40" as="geometry" />
        </mxCell>
        <mxCell id="rq2JJRKLw_9G8wA5gH8K-22" value="" style="endArrow=none;html=1;entryX=0.5;entryY=0.5;entryDx=0;entryDy=0;entryPerimeter=0;exitX=1;exitY=0.5;exitDx=0;exitDy=0;" edge="1" parent="1" source="rq2JJRKLw_9G8wA5gH8K-19" target="rq2JJRKLw_9G8wA5gH8K-3">
          <mxGeometry width="50" height="50" relative="1" as="geometry">
            <mxPoint x="425" y="365" as="sourcePoint" />
            <mxPoint x="475" y="315" as="targetPoint" />
          </mxGeometry>
        </mxCell>
        <mxCell id="rq2JJRKLw_9G8wA5gH8K-23" value="" style="endArrow=none;html=1;entryX=0.5;entryY=0.5;entryDx=0;entryDy=0;entryPerimeter=0;exitX=1;exitY=0.5;exitDx=0;exitDy=0;" edge="1" parent="1" source="rq2JJRKLw_9G8wA5gH8K-20" target="rq2JJRKLw_9G8wA5gH8K-3">
          <mxGeometry width="50" height="50" relative="1" as="geometry">
            <mxPoint x="420" y="390" as="sourcePoint" />
            <mxPoint x="470" y="340" as="targetPoint" />
          </mxGeometry>
        </mxCell>
      </root>
    </mxGraphModel>
  </diagram>
</mxfile>
